<svg width="105" height="81" viewBox="0 0 105 81" fill="none" xmlns="http://www.w3.org/2000/svg">
<path d="M102.5 40.5C102.5 60.9223 80.7563 78.5 52.5 78.5C24.2437 78.5 2.5 60.9223 2.5 40.5C2.5 20.0777 24.2437 2.5 52.5 2.5C80.7563 2.5 102.5 20.0777 102.5 40.5Z" fill="black" stroke="#1B88E5" stroke-width="5"/>
<path d="M15.3491 39.6953L13.7427 39.2339L14.9561 27.1172H27.3975V29.0312H16.6992L15.8276 37.4053C16.2606 37.0977 16.8872 36.7957 17.7075 36.4995C18.5392 36.1919 19.4735 36.0381 20.5103 36.0381C21.6154 36.0381 22.618 36.2261 23.5181 36.6021C24.4295 36.9666 25.21 37.5021 25.8594 38.2085C26.5088 38.9035 27.0101 39.7466 27.3633 40.7378C27.7165 41.7176 27.8931 42.8285 27.8931 44.0703C27.8931 45.2666 27.745 46.366 27.4487 47.3687C27.1525 48.3713 26.7025 49.2485 26.0986 50.0005C25.4948 50.741 24.7257 51.3164 23.7915 51.7266C22.8573 52.1367 21.7464 52.3418 20.459 52.3418C19.4678 52.3418 18.5335 52.2051 17.6562 51.9316C16.7904 51.6468 16.0156 51.2196 15.332 50.6499C14.6484 50.0802 14.0902 49.3625 13.6572 48.4966C13.2357 47.6307 12.9736 46.6167 12.8711 45.4546H14.8364C14.9731 46.5711 15.2751 47.5111 15.7422 48.2744C16.2093 49.0378 16.8359 49.6131 17.6221 50.0005C18.4196 50.3879 19.3652 50.5815 20.459 50.5815C21.3477 50.5815 22.1224 50.4391 22.7832 50.1543C23.4554 49.8695 24.0137 49.4536 24.458 48.9067C24.9137 48.3485 25.2555 47.6706 25.4834 46.873C25.7227 46.0641 25.8423 45.1413 25.8423 44.1045C25.8423 43.2158 25.717 42.4012 25.4663 41.6606C25.2157 40.9087 24.8454 40.2536 24.3555 39.6953C23.877 39.1257 23.2845 38.687 22.5781 38.3794C21.8717 38.0718 21.0628 37.918 20.1514 37.918C18.9665 37.918 18.0208 38.0775 17.3145 38.3965C16.6195 38.7155 15.9644 39.1484 15.3491 39.6953ZM46.7603 37.4224V41.6094C46.7603 43.4323 46.5894 45.0216 46.2476 46.3774C45.9058 47.7218 45.4045 48.8384 44.7437 49.7271C44.0942 50.6043 43.2967 51.2594 42.3511 51.6924C41.4168 52.1253 40.3459 52.3418 39.1382 52.3418C38.1812 52.3418 37.3039 52.2051 36.5063 51.9316C35.7088 51.6582 34.9967 51.2424 34.3701 50.6841C33.7549 50.1144 33.2308 49.4023 32.7979 48.5479C32.3649 47.6934 32.0345 46.6908 31.8066 45.54C31.5788 44.3779 31.4648 43.0677 31.4648 41.6094V37.4224C31.4648 35.5881 31.6357 34.0044 31.9775 32.6714C32.3307 31.3384 32.832 30.2332 33.4814 29.356C34.1423 28.4787 34.9455 27.8293 35.8911 27.4077C36.8368 26.9748 37.9077 26.7583 39.104 26.7583C40.061 26.7583 40.9383 26.9007 41.7358 27.1855C42.5448 27.459 43.2568 27.8691 43.8721 28.416C44.4987 28.9629 45.0228 29.6636 45.4443 30.5181C45.8773 31.3612 46.202 32.3581 46.4185 33.5088C46.6463 34.6595 46.7603 35.964 46.7603 37.4224ZM44.7266 41.8486V37.166C44.7266 36.0381 44.6468 35.0127 44.4873 34.0898C44.3392 33.167 44.117 32.3581 43.8208 31.6631C43.5246 30.9681 43.1486 30.387 42.6929 29.9199C42.2485 29.4528 41.7244 29.1053 41.1206 28.8774C40.5282 28.6382 39.856 28.5186 39.104 28.5186C38.1812 28.5186 37.3665 28.7065 36.6602 29.0825C35.9652 29.4471 35.3841 29.994 34.917 30.7231C34.4499 31.4409 34.0967 32.341 33.8574 33.4233C33.6296 34.5057 33.5156 35.7533 33.5156 37.166V41.8486C33.5156 42.9652 33.5897 43.9849 33.7378 44.9077C33.8859 45.8192 34.1138 46.6281 34.4214 47.3345C34.729 48.0409 35.105 48.639 35.5493 49.1289C36.005 49.6074 36.5291 49.972 37.1216 50.2227C37.7254 50.4619 38.3976 50.5815 39.1382 50.5815C40.0838 50.5815 40.9041 50.3936 41.5991 50.0176C42.2941 49.6302 42.8752 49.0662 43.3423 48.3257C43.8094 47.5737 44.1569 46.6566 44.3848 45.5742C44.6126 44.4805 44.7266 43.2386 44.7266 41.8486ZM50.9814 50.7524C50.9814 50.3537 51.1068 50.0176 51.3574 49.7441C51.6195 49.4593 51.9727 49.3169 52.417 49.3169C52.8727 49.3169 53.2316 49.4536 53.4937 49.7271C53.7557 50.0005 53.8867 50.3423 53.8867 50.7524C53.8867 51.1398 53.7557 51.4702 53.4937 51.7437C53.2316 52.0171 52.8727 52.1538 52.417 52.1538C51.9727 52.1538 51.6195 52.0171 51.3574 51.7437C51.1068 51.4702 50.9814 51.1398 50.9814 50.7524ZM51.0327 34.9785C51.0327 34.5798 51.158 34.2437 51.4087 33.9702C51.6707 33.6854 52.0239 33.543 52.4683 33.543C52.924 33.543 53.2829 33.6797 53.5449 33.9531C53.807 34.2266 53.938 34.5684 53.938 34.9785C53.938 35.3659 53.807 35.6963 53.5449 35.9697C53.2829 36.2432 52.924 36.3799 52.4683 36.3799C52.0239 36.3799 51.6707 36.2432 51.4087 35.9697C51.158 35.6963 51.0327 35.3659 51.0327 34.9785ZM61.5259 39.6953L59.9194 39.2339L61.1328 27.1172H73.5742V29.0312H62.876L62.0044 37.4053C62.4373 37.0977 63.064 36.7957 63.8843 36.4995C64.716 36.1919 65.6502 36.0381 66.687 36.0381C67.7922 36.0381 68.7948 36.2261 69.6948 36.6021C70.6063 36.9666 71.3867 37.5021 72.0361 38.2085C72.6855 38.9035 73.1868 39.7466 73.54 40.7378C73.8932 41.7176 74.0698 42.8285 74.0698 44.0703C74.0698 45.2666 73.9217 46.366 73.6255 47.3687C73.3293 48.3713 72.8792 49.2485 72.2754 50.0005C71.6715 50.741 70.9025 51.3164 69.9683 51.7266C69.034 52.1367 67.9232 52.3418 66.6357 52.3418C65.6445 52.3418 64.7103 52.2051 63.833 51.9316C62.9671 51.6468 62.1924 51.2196 61.5088 50.6499C60.8252 50.0802 60.2669 49.3625 59.834 48.4966C59.4124 47.6307 59.1504 46.6167 59.0479 45.4546H61.0132C61.1499 46.5711 61.4518 47.5111 61.9189 48.2744C62.3861 49.0378 63.0127 49.6131 63.7988 50.0005C64.5964 50.3879 65.542 50.5815 66.6357 50.5815C67.5244 50.5815 68.2992 50.4391 68.96 50.1543C69.6322 49.8695 70.1904 49.4536 70.6348 48.9067C71.0905 48.3485 71.4323 47.6706 71.6602 46.873C71.8994 46.0641 72.019 45.1413 72.019 44.1045C72.019 43.2158 71.8937 42.4012 71.6431 41.6606C71.3924 40.9087 71.0221 40.2536 70.5322 39.6953C70.0537 39.1257 69.4613 38.687 68.7549 38.3794C68.0485 38.0718 67.2396 37.918 66.3281 37.918C65.1432 37.918 64.1976 38.0775 63.4912 38.3965C62.7962 38.7155 62.1411 39.1484 61.5259 39.6953ZM92.937 37.4224V41.6094C92.937 43.4323 92.7661 45.0216 92.4243 46.3774C92.0825 47.7218 91.5812 48.8384 90.9204 49.7271C90.271 50.6043 89.4735 51.2594 88.5278 51.6924C87.5936 52.1253 86.5226 52.3418 85.3149 52.3418C84.3579 52.3418 83.4806 52.2051 82.6831 51.9316C81.8856 51.6582 81.1735 51.2424 80.5469 50.6841C79.9316 50.1144 79.4076 49.4023 78.9746 48.5479C78.5417 47.6934 78.2113 46.6908 77.9834 45.54C77.7555 44.3779 77.6416 43.0677 77.6416 41.6094V37.4224C77.6416 35.5881 77.8125 34.0044 78.1543 32.6714C78.5075 31.3384 79.0088 30.2332 79.6582 29.356C80.319 28.4787 81.1222 27.8293 82.0679 27.4077C83.0135 26.9748 84.0845 26.7583 85.2808 26.7583C86.2378 26.7583 87.1151 26.9007 87.9126 27.1855C88.7215 27.459 89.4336 27.8691 90.0488 28.416C90.6755 28.9629 91.1995 29.6636 91.6211 30.5181C92.054 31.3612 92.3787 32.3581 92.5952 33.5088C92.8231 34.6595 92.937 35.964 92.937 37.4224ZM90.9033 41.8486V37.166C90.9033 36.0381 90.8236 35.0127 90.6641 34.0898C90.516 33.167 90.2938 32.3581 89.9976 31.6631C89.7013 30.9681 89.3254 30.387 88.8696 29.9199C88.4253 29.4528 87.9012 29.1053 87.2974 28.8774C86.7049 28.6382 86.0327 28.5186 85.2808 28.5186C84.3579 28.5186 83.5433 28.7065 82.8369 29.0825C82.1419 29.4471 81.5609 29.994 81.0938 30.7231C80.6266 31.4409 80.2734 32.341 80.0342 33.4233C79.8063 34.5057 79.6924 35.7533 79.6924 37.166V41.8486C79.6924 42.9652 79.7664 43.9849 79.9146 44.9077C80.0627 45.8192 80.2905 46.6281 80.5981 47.3345C80.9058 48.0409 81.2817 48.639 81.7261 49.1289C82.1818 49.6074 82.7059 49.972 83.2983 50.2227C83.9022 50.4619 84.5744 50.5815 85.3149 50.5815C86.2606 50.5815 87.0809 50.3936 87.7759 50.0176C88.4709 49.6302 89.0519 49.0662 89.519 48.3257C89.9862 47.5737 90.3337 46.6566 90.5615 45.5742C90.7894 44.4805 90.9033 43.2386 90.9033 41.8486Z" fill="white"/>
</svg>
